<svg xmlns="http://www.w3.org/2000/svg" viewBox="0 0 301.3 244.64"><defs><style>.cls-1{fill:#ffffff;}</style></defs><title>Asset 1ldpi</title><g id="Layer_2" data-name="Layer 2"><g id="Layer_1-2" data-name="Layer 1"><path class="cls-1" d="M0,203.23H30.36v8.28H8.28v12.42H24.84v8.28H8.28v12.42H0Z"/><path class="cls-1" d="M68.18,244.64a20.7,20.7,0,1,1,20.7-20.7A20.71,20.71,0,0,1,68.18,244.64Zm-12.42-20.7a12.42,12.42,0,1,0,12.42-12.42A12.44,12.44,0,0,0,55.76,223.94Z"/><path class="cls-1" d="M142.32,244.64h-9.88l-7.23-11h-6.51v11h-8.28v-41.4h15.18a15.19,15.19,0,0,1,8,28.1Zm-16.73-19.32a6.9,6.9,0,0,0,0-13.8h-6.9v13.8Z"/><path class="cls-1" d="M186.75,232.22A12.42,12.42,0,0,1,162.24,235l7.95-2.82a4.14,4.14,0,1,0,4.14-4.14,12.42,12.42,0,1,1,12.09-15.24l-7.95,2.82a4.14,4.14,0,1,0-4.14,4.14A12.44,12.44,0,0,1,186.75,232.22Z"/><path class="cls-1" d="M206.63,203.23h35.88v8.28h-13.8v33.12h-8.28V211.52h-13.8Z"/><path class="cls-1" d="M288.05,237.74H266.74l-3.75,6.9h-9.44L277.4,201l23.9,43.67h-9.44Zm-4.53-8.28-6.13-11.26-6.13,11.26Z"/><polygon class="cls-1" points="242.08 38.76 209.44 0 209.44 20.81 130.28 20.81 98.42 59.16 209.44 59.16 209.44 79.97 242.08 38.76"/><polygon class="cls-1" points="91.87 51.45 59.22 92.66 91.87 131.43 91.87 110.62 171.03 110.62 202.88 72.26 91.87 72.26 91.87 51.45"/><polygon class="cls-1" points="102.13 176.47 145.74 121.41 102.13 121.41 102.13 176.47"/></g></g></svg>
