<?xml version="1.0" encoding="UTF-8" standalone="no"?>
<svg width="343px" height="50px" viewBox="0 0 343 50" version="1.1" xmlns="http://www.w3.org/2000/svg" xmlns:xlink="http://www.w3.org/1999/xlink">
    <!-- Generator: Sketch 42 (36781) - http://www.bohemiancoding.com/sketch -->
    <title>Forsta_logo_TEXT_blk</title>
    <desc>Created with Sketch.</desc>
    <defs>
        <polygon id="path-1" points="0.0681818182 0.378409091 0.0681818182 49.9318182 342.389773 49.9318182 342.389773 25.1551136 342.389773 0.378409091 0.0681818182 0.378409091"></polygon>
    </defs>
    <g id="Logos-" stroke="none" stroke-width="1" fill="none" fill-rule="evenodd">
        <g id="Forsta_logo_TEXT_blk">
            <mask id="mask-2" fill="white">
                <use xlink:href="#path-1"></use>
            </mask>
            <g id="Clip-2"></g>
            <polyline id="Fill-1" fill="#FFFFFF" mask="url(#mask-2)" points="0 2.95 34.5022727 2.95 34.5022727 12.3613636 9.40909091 12.3613636 9.40909091 26.4761364 28.2306818 26.4761364 28.2306818 35.8852273 9.40909091 35.8852273 9.40909091 50 0 50 0 2.95"></polyline>
            <path d="M63.3590909,26.4761364 C63.3590909,34.2534091 69.6943182,40.5897727 77.4727273,40.5897727 C85.2522727,40.5897727 91.5886364,34.2534091 91.5886364,26.4761364 C91.5886364,18.6965909 85.2522727,12.3613636 77.4727273,12.3613636 C69.6943182,12.3613636 63.3590909,18.6965909 63.3590909,26.4761364 Z M77.4727273,50 C64.4875,50 53.9488636,39.4602273 53.9488636,26.4761364 C53.9488636,13.4897727 64.4875,2.95 77.4727273,2.95 C90.4590909,2.95 100.998864,13.4897727 100.998864,26.4761364 C100.998864,39.4602273 90.4590909,50 77.4727273,50 L77.4727273,50 Z" id="Fill-3" fill="#FFFFFF" mask="url(#mask-2)"></path>
            <path d="M142.713636,28.0431818 C147.042045,28.0431818 150.554545,24.5306818 150.554545,20.2022727 C150.554545,15.8727273 147.042045,12.3613636 142.713636,12.3613636 L134.871591,12.3613636 L134.871591,28.0431818 L142.713636,28.0431818 Z M161.721591,50 L150.492045,50 L142.273864,37.4534091 L134.871591,37.4534091 L134.871591,50 L125.461364,50 L125.461364,2.95 L142.713636,2.95 C152.248864,2.95 159.964773,10.6670455 159.964773,20.2022727 C159.964773,26.4125 156.703409,31.8079545 151.809091,34.8818182 L161.721591,50 L161.721591,50 Z" id="Fill-4" fill="#FFFFFF" mask="url(#mask-2)"></path>
            <path d="M212.220455,35.8852273 C212.220455,43.6647727 205.884091,50 198.104545,50 C191.393182,50 185.810227,45.3579545 184.365909,39.0840909 L193.401136,35.8852273 C193.401136,38.4568182 195.534091,40.5897727 198.104545,40.5897727 C200.677273,40.5897727 202.810227,38.4568182 202.810227,35.8852273 C202.810227,33.3125 200.677273,31.1795455 198.104545,31.1795455 C190.327273,31.1795455 183.989773,24.8431818 183.989773,17.0647727 C183.989773,9.2875 190.327273,2.95 198.104545,2.95 C204.817045,2.95 210.401136,7.59318182 211.844318,13.8659091 L202.810227,17.0647727 C202.810227,14.4943182 200.677273,12.3613636 198.104545,12.3613636 C195.534091,12.3613636 193.401136,14.4943182 193.401136,17.0647727 C193.401136,19.6375 195.534091,21.7693182 198.104545,21.7693182 C205.884091,21.7693182 212.220455,28.1056818 212.220455,35.8852273" id="Fill-5" fill="#FFFFFF" mask="url(#mask-2)"></path>
            <polyline id="Fill-6" fill="#FFFFFF" mask="url(#mask-2)" points="234.802273 2.95 275.578409 2.95 275.578409 12.3613636 259.895455 12.3613636 259.895455 50 250.485227 50 250.485227 12.3613636 234.802273 12.3613636 234.802273 2.95"></polyline>
            <path d="M322.189773,32.7477273 L315.226136,19.9511364 L308.2625,32.7477273 L322.189773,32.7477273 Z M327.332955,42.1579545 L303.118182,42.1579545 L298.851136,50 L288.126136,50 L315.226136,0.378409091 L342.389773,50 L331.661364,50 L327.332955,42.1579545 L327.332955,42.1579545 Z" id="Fill-7" fill="#FFFFFF" mask="url(#mask-2)"></path>
        </g>
    </g>
</svg>