<?xml version="1.0" encoding="utf-8"?>
<!DOCTYPE svg PUBLIC "-//W3C//DTD SVG 1.1//EN" "http://www.w3.org/Graphics/SVG/1.1/DTD/svg11.dtd">
<svg version="1.1" width="1000" height="1000" xmlns="http://www.w3.org/2000/svg" xmlns:xlink="http://www.w3.org/1999/xlink">
    <path d="M620.7,402c-15.5-9-34.6-9-50.2-0.2l-191,109.1c-15.6,9-25.3,25.6-25.3,43.6v196.7c0,27.8,22.5,50.3,50.2,50.3h191c27.8,0,50.3-22.5,50.3-50.3V445.4C645.7,427.5,636.2,410.9,620.7,402z"/>
    <path d="M279,597.3c-15.5-9.1-34.6-9.1-50.1-0.2L35.3,707.7C15.6,719,5.8,742.1,11.7,764.2c5.8,22,25.8,37.4,48.6,37.4h193.5c27.8,0,50.3-22.5,50.3-50.3V640.7C304,622.8,294.5,606.2,279,597.3z"/>
    <path d="M965,205.2c-15.5-9-34.6-9.1-50.1-0.2L721.4,315.7c-15.7,8.9-25.3,25.6-25.3,43.6v392c0,27.8,22.5,50.3,50.3,50.3h193.5c27.8,0,50.3-22.5,50.3-50.3V248.7C990,230.8,980.5,214.2,965,205.2z"/>
</svg>
